<?xml version="1.0" encoding="utf-8"?>
<!-- Generator: Adobe Illustrator 23.0.1, SVG Export Plug-In . SVG Version: 6.00 Build 0)  -->
<svg version="1.1" xmlns="http://www.w3.org/2000/svg" xmlns:xlink="http://www.w3.org/1999/xlink" x="0px" y="0px"
	 viewBox="0 0 180 44" style="enable-background:new 0 0 180 44;" xml:space="preserve">
<style type="text/css">
	.st0{display:none;}
	.st1{display:inline;fill:none;}
	.st2{display:inline;enable-background:new    ;}
	.st3{fill:#FFFFFF;}
	.st4{fill:none;}
	.st5{font-family:'ShreeDev0714';}
	.st6{font-size:56px;}
</style>
<g id="Layer_1" class="st0">
	<rect x="0.2" y="1.5" class="st1" width="598.9" height="358.6"/>
	<g class="st2">
		<path class="st3" d="M8.2,39.8C5.4,37.1,4,33.9,4,30.1h2.8c0,3.1,1.1,5.7,3.4,7.9s5,3.3,8.2,3.3c3.5,0,6.5-0.9,9-2.8
			c2.5-1.9,3.7-4.1,3.7-6.7c0-2.3-1.1-4.2-3.3-5.7c-2.1-1.5-5-2.5-8.6-2.8c-4.4-0.4-7.9-1.6-10.6-3.8c-2.6-2.1-4-4.8-4-7.9
			s1.3-5.7,4-7.9s5.9-3.3,9.7-3.3c4.1,0,7.6,1.1,10.5,3.4s4.3,5,4.3,8.2h-2.8c0-2.5-1.2-4.6-3.5-6.3c-2.3-1.8-5.1-2.6-8.5-2.6
			c-3,0-5.6,0.8-7.8,2.5c-2.1,1.6-3.2,3.6-3.2,6c0,2.3,1.1,4.3,3.3,5.8c2.3,1.6,5.3,2.5,9,2.9C24,20.7,27.4,21.9,30,24
			s3.8,4.7,3.8,7.7c0,3.3-1.5,6.2-4.5,8.6s-6.7,3.5-10.9,3.5C14.4,43.8,11,42.5,8.2,39.8z"/>
		<path class="st3" d="M41,42.8V1.5h18.6c2.7,0,5,1.1,6.8,3.3c1.9,2.2,2.9,4.8,2.9,7.9c0,3.2-1,5.9-2.9,8.2s-4.1,3.4-6.8,3.4H43.7
			v18.5C43.7,42.8,41,42.8,41,42.8z M59.1,21.6c2,0,3.8-0.8,5.2-2.5c1.4-1.6,2.2-3.6,2.2-6c0-2.5-0.7-4.6-2.2-6.3
			c-1.4-1.7-3.2-2.6-5.2-2.6H43.7v17.4H59.1z"/>
		<path class="st3" d="M87.8,42.8v-18L72,1.5h4l13.4,20.1l13-20.1h4L91,24.8v17.9h-3.2V42.8z"/>
		<path class="st3" d="M112,42.8V1.5h19.7c2.8,0,5.2,1.1,7.2,3.2s3,4.6,3,7.7c0,2.6-0.6,4.9-1.8,6.9c-1.3,1.9-2.8,3.1-4.7,3.4
			c1.7,0.5,3.1,1.9,4.2,4.4c1.1,2.5,1.6,5.4,1.6,8.9c0,1.9,0,3.4,0.1,4.4c0.1,1.2,0.3,2,0.6,2.4h-2.8c-0.5-0.6-0.8-1.6-0.9-3.1
			l-0.2-5.9c0-2.8-0.7-5.2-2-7.2c-1.3-1.9-2.9-2.9-4.8-2.9h-16.4v19.1C114.8,42.8,112,42.8,112,42.8z M131.2,21.1
			c2.2,0,4.1-0.8,5.6-2.5c1.5-1.6,2.3-3.6,2.3-6c0-2.3-0.8-4.3-2.3-6c-1.6-1.6-3.5-2.4-5.6-2.4h-16.4v16.9H131.2z"/>
		<path class="st3" d="M150.2,42.8V1.5h26.9v2.7H153v15.9h22v2.6h-22v17.5h24.1v2.6C177.1,42.8,150.2,42.8,150.2,42.8z"/>
	</g>
</g>
<g id="SPYRE">
	<rect y="2" class="st4" width="178.3" height="42"/>
	<text transform="matrix(1 0 0 1 3.2188 43.252)" class="st3 st5 st6"></text>
</g>
</svg>
